<?xml version="1.0" encoding="utf-8" standalone="no"?>
<!DOCTYPE svg PUBLIC "-//W3C//DTD SVG 1.1//EN"
  "http://www.w3.org/Graphics/SVG/1.1/DTD/svg11.dtd">
<svg xmlns:xlink="http://www.w3.org/1999/xlink" width="321.504687pt" height="308.278125pt" viewBox="0 0 321.504687 308.278125" xmlns="http://www.w3.org/2000/svg" version="1.1">
 <metadata>
  <rdf:RDF xmlns:dc="http://purl.org/dc/elements/1.1/" xmlns:cc="http://creativecommons.org/ns#" xmlns:rdf="http://www.w3.org/1999/02/22-rdf-syntax-ns#">
   <cc:Work>
    <dc:type rdf:resource="http://purl.org/dc/dcmitype/StillImage"/>
    <dc:date>2023-04-23T21:12:56.974928</dc:date>
    <dc:format>image/svg+xml</dc:format>
    <dc:creator>
     <cc:Agent>
      <dc:title>Matplotlib v3.6.0, https://matplotlib.org/</dc:title>
     </cc:Agent>
    </dc:creator>
   </cc:Work>
  </rdf:RDF>
 </metadata>
 <defs>
  <style type="text/css">*{stroke-linejoin: round; stroke-linecap: butt}</style>
 </defs>
 <g id="figure_1">
  <g id="patch_1">
   <path d="M 0 308.278125 
L 321.504687 308.278125 
L 321.504687 0 
L 0 0 
z
" style="fill: #ebf3ef"/>
  </g>
  <g id="axes_1">
   <g id="patch_2">
    <path d="M 35.304688 284.4 
L 314.304688 284.4 
L 314.304688 7.2 
L 35.304688 7.2 
z
" style="fill: #ffffff"/>
   </g>
   <g id="PathCollection_1">
    <defs>
     <path id="m1c6ae18003" d="M 0 3 
C 0.795609 3 1.55874 2.683901 2.12132 2.12132 
C 2.683901 1.55874 3 0.795609 3 0 
C 3 -0.795609 2.683901 -1.55874 2.12132 -2.12132 
C 1.55874 -2.683901 0.795609 -3 0 -3 
C -0.795609 -3 -1.55874 -2.683901 -2.12132 -2.12132 
C -2.683901 -1.55874 -3 -0.795609 -3 0 
C -3 0.795609 -2.683901 1.55874 -2.12132 2.12132 
C -1.55874 2.683901 -0.795609 3 0 3 
z
" style="stroke: #00693e"/>
    </defs>
    <g clip-path="url(#p9943d3a439)">
     <use xlink:href="#m1c6ae18003" x="47.986506" y="225.391846" style="fill: #00693e; stroke: #00693e"/>
     <use xlink:href="#m1c6ae18003" x="61.335788" y="215.054656" style="fill: #00693e; stroke: #00693e"/>
     <use xlink:href="#m1c6ae18003" x="74.68507" y="223.911058" style="fill: #00693e; stroke: #00693e"/>
     <use xlink:href="#m1c6ae18003" x="88.034353" y="205.083742" style="fill: #00693e; stroke: #00693e"/>
     <use xlink:href="#m1c6ae18003" x="101.383635" y="204.346784" style="fill: #00693e; stroke: #00693e"/>
     <use xlink:href="#m1c6ae18003" x="114.732917" y="204.616779" style="fill: #00693e; stroke: #00693e"/>
     <use xlink:href="#m1c6ae18003" x="128.082199" y="192.020341" style="fill: #00693e; stroke: #00693e"/>
     <use xlink:href="#m1c6ae18003" x="141.431482" y="177.567483" style="fill: #00693e; stroke: #00693e"/>
     <use xlink:href="#m1c6ae18003" x="154.780764" y="177.032833" style="fill: #00693e; stroke: #00693e"/>
     <use xlink:href="#m1c6ae18003" x="168.130046" y="165.993106" style="fill: #00693e; stroke: #00693e"/>
     <use xlink:href="#m1c6ae18003" x="181.479329" y="174.181809" style="fill: #00693e; stroke: #00693e"/>
     <use xlink:href="#m1c6ae18003" x="194.828611" y="154.552242" style="fill: #00693e; stroke: #00693e"/>
     <use xlink:href="#m1c6ae18003" x="208.177893" y="146.273541" style="fill: #00693e; stroke: #00693e"/>
     <use xlink:href="#m1c6ae18003" x="221.527176" y="145.420899" style="fill: #00693e; stroke: #00693e"/>
     <use xlink:href="#m1c6ae18003" x="234.876458" y="110.587846" style="fill: #00693e; stroke: #00693e"/>
     <use xlink:href="#m1c6ae18003" x="248.22574" y="110.949345" style="fill: #00693e; stroke: #00693e"/>
     <use xlink:href="#m1c6ae18003" x="261.575022" y="84.278414" style="fill: #00693e; stroke: #00693e"/>
     <use xlink:href="#m1c6ae18003" x="274.924305" y="60.154764" style="fill: #00693e; stroke: #00693e"/>
     <use xlink:href="#m1c6ae18003" x="288.273587" y="44.137603" style="fill: #00693e; stroke: #00693e"/>
     <use xlink:href="#m1c6ae18003" x="301.622869" y="33.964929" style="fill: #00693e; stroke: #00693e"/>
    </g>
   </g>
   <g id="matplotlib.axis_1">
    <g id="xtick_1">
     <g id="line2d_1">
      <defs>
       <path id="m535d010343" d="M 0 0 
L 0 3.5 
" style="stroke: #000000; stroke-width: 0.8"/>
      </defs>
      <g>
       <use xlink:href="#m535d010343" x="47.986506" y="284.4" style="stroke: #000000; stroke-width: 0.8"/>
      </g>
     </g>
     <g id="text_1">
      <!-- 0 -->
      <g transform="translate(44.805256 298.998438) scale(0.1 -0.1)">
       <defs>
        <path id="DejaVuSans-30" d="M 2034 4250 
Q 1547 4250 1301 3770 
Q 1056 3291 1056 2328 
Q 1056 1369 1301 889 
Q 1547 409 2034 409 
Q 2525 409 2770 889 
Q 3016 1369 3016 2328 
Q 3016 3291 2770 3770 
Q 2525 4250 2034 4250 
z
M 2034 4750 
Q 2819 4750 3233 4129 
Q 3647 3509 3647 2328 
Q 3647 1150 3233 529 
Q 2819 -91 2034 -91 
Q 1250 -91 836 529 
Q 422 1150 422 2328 
Q 422 3509 836 4129 
Q 1250 4750 2034 4750 
z
" transform="scale(0.015625)"/>
       </defs>
       <use xlink:href="#DejaVuSans-30"/>
      </g>
     </g>
    </g>
    <g id="xtick_2">
     <g id="line2d_2">
      <g>
       <use xlink:href="#m535d010343" x="98.713778" y="284.4" style="stroke: #000000; stroke-width: 0.8"/>
      </g>
     </g>
     <g id="text_2">
      <!-- 2 -->
      <g transform="translate(95.532528 298.998438) scale(0.1 -0.1)">
       <defs>
        <path id="DejaVuSans-32" d="M 1228 531 
L 3431 531 
L 3431 0 
L 469 0 
L 469 531 
Q 828 903 1448 1529 
Q 2069 2156 2228 2338 
Q 2531 2678 2651 2914 
Q 2772 3150 2772 3378 
Q 2772 3750 2511 3984 
Q 2250 4219 1831 4219 
Q 1534 4219 1204 4116 
Q 875 4013 500 3803 
L 500 4441 
Q 881 4594 1212 4672 
Q 1544 4750 1819 4750 
Q 2544 4750 2975 4387 
Q 3406 4025 3406 3419 
Q 3406 3131 3298 2873 
Q 3191 2616 2906 2266 
Q 2828 2175 2409 1742 
Q 1991 1309 1228 531 
z
" transform="scale(0.015625)"/>
       </defs>
       <use xlink:href="#DejaVuSans-32"/>
      </g>
     </g>
    </g>
    <g id="xtick_3">
     <g id="line2d_3">
      <g>
       <use xlink:href="#m535d010343" x="149.441051" y="284.4" style="stroke: #000000; stroke-width: 0.8"/>
      </g>
     </g>
     <g id="text_3">
      <!-- 4 -->
      <g transform="translate(146.259801 298.998438) scale(0.1 -0.1)">
       <defs>
        <path id="DejaVuSans-34" d="M 2419 4116 
L 825 1625 
L 2419 1625 
L 2419 4116 
z
M 2253 4666 
L 3047 4666 
L 3047 1625 
L 3713 1625 
L 3713 1100 
L 3047 1100 
L 3047 0 
L 2419 0 
L 2419 1100 
L 313 1100 
L 313 1709 
L 2253 4666 
z
" transform="scale(0.015625)"/>
       </defs>
       <use xlink:href="#DejaVuSans-34"/>
      </g>
     </g>
    </g>
    <g id="xtick_4">
     <g id="line2d_4">
      <g>
       <use xlink:href="#m535d010343" x="200.168324" y="284.4" style="stroke: #000000; stroke-width: 0.8"/>
      </g>
     </g>
     <g id="text_4">
      <!-- 6 -->
      <g transform="translate(196.987074 298.998438) scale(0.1 -0.1)">
       <defs>
        <path id="DejaVuSans-36" d="M 2113 2584 
Q 1688 2584 1439 2293 
Q 1191 2003 1191 1497 
Q 1191 994 1439 701 
Q 1688 409 2113 409 
Q 2538 409 2786 701 
Q 3034 994 3034 1497 
Q 3034 2003 2786 2293 
Q 2538 2584 2113 2584 
z
M 3366 4563 
L 3366 3988 
Q 3128 4100 2886 4159 
Q 2644 4219 2406 4219 
Q 1781 4219 1451 3797 
Q 1122 3375 1075 2522 
Q 1259 2794 1537 2939 
Q 1816 3084 2150 3084 
Q 2853 3084 3261 2657 
Q 3669 2231 3669 1497 
Q 3669 778 3244 343 
Q 2819 -91 2113 -91 
Q 1303 -91 875 529 
Q 447 1150 447 2328 
Q 447 3434 972 4092 
Q 1497 4750 2381 4750 
Q 2619 4750 2861 4703 
Q 3103 4656 3366 4563 
z
" transform="scale(0.015625)"/>
       </defs>
       <use xlink:href="#DejaVuSans-36"/>
      </g>
     </g>
    </g>
    <g id="xtick_5">
     <g id="line2d_5">
      <g>
       <use xlink:href="#m535d010343" x="250.895597" y="284.4" style="stroke: #000000; stroke-width: 0.8"/>
      </g>
     </g>
     <g id="text_5">
      <!-- 8 -->
      <g transform="translate(247.714347 298.998438) scale(0.1 -0.1)">
       <defs>
        <path id="DejaVuSans-38" d="M 2034 2216 
Q 1584 2216 1326 1975 
Q 1069 1734 1069 1313 
Q 1069 891 1326 650 
Q 1584 409 2034 409 
Q 2484 409 2743 651 
Q 3003 894 3003 1313 
Q 3003 1734 2745 1975 
Q 2488 2216 2034 2216 
z
M 1403 2484 
Q 997 2584 770 2862 
Q 544 3141 544 3541 
Q 544 4100 942 4425 
Q 1341 4750 2034 4750 
Q 2731 4750 3128 4425 
Q 3525 4100 3525 3541 
Q 3525 3141 3298 2862 
Q 3072 2584 2669 2484 
Q 3125 2378 3379 2068 
Q 3634 1759 3634 1313 
Q 3634 634 3220 271 
Q 2806 -91 2034 -91 
Q 1263 -91 848 271 
Q 434 634 434 1313 
Q 434 1759 690 2068 
Q 947 2378 1403 2484 
z
M 1172 3481 
Q 1172 3119 1398 2916 
Q 1625 2713 2034 2713 
Q 2441 2713 2670 2916 
Q 2900 3119 2900 3481 
Q 2900 3844 2670 4047 
Q 2441 4250 2034 4250 
Q 1625 4250 1398 4047 
Q 1172 3844 1172 3481 
z
" transform="scale(0.015625)"/>
       </defs>
       <use xlink:href="#DejaVuSans-38"/>
      </g>
     </g>
    </g>
    <g id="xtick_6">
     <g id="line2d_6">
      <g>
       <use xlink:href="#m535d010343" x="301.622869" y="284.4" style="stroke: #000000; stroke-width: 0.8"/>
      </g>
     </g>
     <g id="text_6">
      <!-- 10 -->
      <g transform="translate(295.260369 298.998438) scale(0.1 -0.1)">
       <defs>
        <path id="DejaVuSans-31" d="M 794 531 
L 1825 531 
L 1825 4091 
L 703 3866 
L 703 4441 
L 1819 4666 
L 2450 4666 
L 2450 531 
L 3481 531 
L 3481 0 
L 794 0 
L 794 531 
z
" transform="scale(0.015625)"/>
       </defs>
       <use xlink:href="#DejaVuSans-31"/>
       <use xlink:href="#DejaVuSans-30" x="63.623047"/>
      </g>
     </g>
    </g>
   </g>
   <g id="matplotlib.axis_2">
    <g id="ytick_1">
     <g id="line2d_7">
      <defs>
       <path id="md02dbc2dc1" d="M 0 0 
L -3.5 0 
" style="stroke: #000000; stroke-width: 0.8"/>
      </defs>
      <g>
       <use xlink:href="#md02dbc2dc1" x="35.304688" y="259.537816" style="stroke: #000000; stroke-width: 0.8"/>
      </g>
     </g>
     <g id="text_7">
      <!-- −20 -->
      <g transform="translate(7.2 263.337034) scale(0.1 -0.1)">
       <defs>
        <path id="DejaVuSans-2212" d="M 678 2272 
L 4684 2272 
L 4684 1741 
L 678 1741 
L 678 2272 
z
" transform="scale(0.015625)"/>
       </defs>
       <use xlink:href="#DejaVuSans-2212"/>
       <use xlink:href="#DejaVuSans-32" x="83.789062"/>
       <use xlink:href="#DejaVuSans-30" x="147.412109"/>
      </g>
     </g>
    </g>
    <g id="ytick_2">
     <g id="line2d_8">
      <g>
       <use xlink:href="#md02dbc2dc1" x="35.304688" y="224.678748" style="stroke: #000000; stroke-width: 0.8"/>
      </g>
     </g>
     <g id="text_8">
      <!-- 0 -->
      <g transform="translate(21.942187 228.477967) scale(0.1 -0.1)">
       <use xlink:href="#DejaVuSans-30"/>
      </g>
     </g>
    </g>
    <g id="ytick_3">
     <g id="line2d_9">
      <g>
       <use xlink:href="#md02dbc2dc1" x="35.304688" y="189.819681" style="stroke: #000000; stroke-width: 0.8"/>
      </g>
     </g>
     <g id="text_9">
      <!-- 20 -->
      <g transform="translate(15.579687 193.6189) scale(0.1 -0.1)">
       <use xlink:href="#DejaVuSans-32"/>
       <use xlink:href="#DejaVuSans-30" x="63.623047"/>
      </g>
     </g>
    </g>
    <g id="ytick_4">
     <g id="line2d_10">
      <g>
       <use xlink:href="#md02dbc2dc1" x="35.304688" y="154.960614" style="stroke: #000000; stroke-width: 0.8"/>
      </g>
     </g>
     <g id="text_10">
      <!-- 40 -->
      <g transform="translate(15.579687 158.759833) scale(0.1 -0.1)">
       <use xlink:href="#DejaVuSans-34"/>
       <use xlink:href="#DejaVuSans-30" x="63.623047"/>
      </g>
     </g>
    </g>
    <g id="ytick_5">
     <g id="line2d_11">
      <g>
       <use xlink:href="#md02dbc2dc1" x="35.304688" y="120.101547" style="stroke: #000000; stroke-width: 0.8"/>
      </g>
     </g>
     <g id="text_11">
      <!-- 60 -->
      <g transform="translate(15.579687 123.900766) scale(0.1 -0.1)">
       <use xlink:href="#DejaVuSans-36"/>
       <use xlink:href="#DejaVuSans-30" x="63.623047"/>
      </g>
     </g>
    </g>
    <g id="ytick_6">
     <g id="line2d_12">
      <g>
       <use xlink:href="#md02dbc2dc1" x="35.304688" y="85.24248" style="stroke: #000000; stroke-width: 0.8"/>
      </g>
     </g>
     <g id="text_12">
      <!-- 80 -->
      <g transform="translate(15.579687 89.041699) scale(0.1 -0.1)">
       <use xlink:href="#DejaVuSans-38"/>
       <use xlink:href="#DejaVuSans-30" x="63.623047"/>
      </g>
     </g>
    </g>
    <g id="ytick_7">
     <g id="line2d_13">
      <g>
       <use xlink:href="#md02dbc2dc1" x="35.304688" y="50.383413" style="stroke: #000000; stroke-width: 0.8"/>
      </g>
     </g>
     <g id="text_13">
      <!-- 100 -->
      <g transform="translate(9.217187 54.182631) scale(0.1 -0.1)">
       <use xlink:href="#DejaVuSans-31"/>
       <use xlink:href="#DejaVuSans-30" x="63.623047"/>
       <use xlink:href="#DejaVuSans-30" x="127.246094"/>
      </g>
     </g>
    </g>
    <g id="ytick_8">
     <g id="line2d_14">
      <g>
       <use xlink:href="#md02dbc2dc1" x="35.304688" y="15.524345" style="stroke: #000000; stroke-width: 0.8"/>
      </g>
     </g>
     <g id="text_14">
      <!-- 120 -->
      <g transform="translate(9.217187 19.323564) scale(0.1 -0.1)">
       <use xlink:href="#DejaVuSans-31"/>
       <use xlink:href="#DejaVuSans-32" x="63.623047"/>
       <use xlink:href="#DejaVuSans-30" x="127.246094"/>
      </g>
     </g>
    </g>
   </g>
   <g id="line2d_15">
    <path d="M 47.986506 245.526473 
L 61.335788 235.763265 
L 74.68507 226.000058 
L 88.034353 216.23685 
L 101.383635 206.473643 
L 114.732917 196.710435 
L 128.082199 186.947228 
L 141.431482 177.18402 
L 154.780764 167.420812 
L 168.130046 157.657605 
L 181.479329 147.894397 
L 194.828611 138.13119 
L 208.177893 128.367982 
L 221.527176 118.604774 
L 234.876458 108.841567 
L 248.22574 99.078359 
L 261.575022 89.315152 
L 274.924305 79.551944 
L 288.273587 69.788737 
L 301.622869 60.025529 
" clip-path="url(#p9943d3a439)" style="fill: none; stroke: #00693e; stroke-width: 1.5; stroke-linecap: square"/>
   </g>
   <g id="line2d_16">
    <path d="M 47.986506 218.419901 
L 54.359279 217.964137 
L 60.732052 217.291616 
L 67.104825 216.40234 
L 73.477598 215.296308 
L 79.85037 213.97352 
L 86.223143 212.433976 
L 92.595916 210.677677 
L 98.968689 208.704621 
L 105.341462 206.51481 
L 111.714235 204.108243 
L 118.087008 201.48492 
L 124.459781 198.644841 
L 130.832554 195.588007 
L 137.205327 192.314416 
L 143.5781 188.82407 
L 149.950873 185.116968 
L 156.323646 181.19311 
L 163.970973 176.198363 
L 171.618301 170.891487 
L 179.265629 165.272483 
L 186.912956 159.341351 
L 194.560284 153.09809 
L 202.207611 146.542701 
L 209.854939 139.675183 
L 217.502266 132.495537 
L 225.149594 125.003763 
L 232.796921 117.19986 
L 240.444249 109.083829 
L 248.091576 100.655669 
L 255.738904 91.915381 
L 263.386232 82.862965 
L 271.033559 73.49842 
L 278.680887 63.821747 
L 286.328214 53.832946 
L 295.250096 41.784848 
L 301.622869 32.918957 
L 301.622869 32.918957 
" clip-path="url(#p9943d3a439)" style="fill: none; stroke: #12312b; stroke-width: 1.5; stroke-linecap: square"/>
   </g>
   <g id="line2d_17">
    <path d="M 47.986506 211.921944 
L 91.321362 211.824788 
L 97.694135 211.600334 
L 102.792353 211.192078 
L 106.616017 210.661867 
L 110.439681 209.857149 
L 112.98879 209.127448 
L 115.537899 208.214295 
L 118.087008 207.094461 
L 120.636117 205.747837 
L 123.185227 204.15918 
L 125.734336 202.319905 
L 128.283445 200.229769 
L 130.832554 197.898333 
L 134.656218 193.996583 
L 138.479882 189.71778 
L 149.950873 176.545833 
L 152.499982 173.995215 
L 155.049091 171.729174 
L 157.598201 169.800898 
L 160.14731 168.248414 
L 162.696419 167.090981 
L 165.245528 166.32635 
L 167.794637 165.92919 
L 170.343746 165.850906 
L 172.892856 166.021042 
L 177.991074 166.735238 
L 181.814738 167.172248 
L 184.363847 167.2077 
L 186.912956 166.920576 
L 189.462065 166.229705 
L 192.011174 165.079173 
L 194.560284 163.443644 
L 197.109393 161.331544 
L 199.658502 158.78559 
L 202.207611 155.880326 
L 206.031275 151.074405 
L 212.404048 142.881898 
L 214.953157 139.875095 
L 217.502266 137.144053 
L 220.051375 134.717265 
L 222.600485 132.575815 
L 226.424148 129.739061 
L 231.522367 125.995589 
L 234.071476 123.798251 
L 236.620585 121.197931 
L 239.169694 118.10725 
L 241.718804 114.508288 
L 244.267913 110.467998 
L 253.189795 95.672063 
L 255.738904 92.293299 
L 257.013459 90.861947 
L 259.562568 88.495087 
L 264.660786 84.622785 
L 265.935341 83.395058 
L 267.209895 81.850608 
L 268.48445 79.867107 
L 269.759005 77.323959 
L 271.033559 74.112352 
L 272.308114 70.147704 
L 273.582668 65.384338 
L 274.857223 59.832322 
L 277.406332 46.792059 
L 279.955441 32.929334 
L 281.229996 26.827418 
L 282.50455 22.169672 
L 283.779105 19.8 
L 285.05366 20.678031 
L 286.328214 25.832431 
L 287.602769 36.283016 
L 288.877323 52.921107 
L 290.151878 76.336132 
L 291.426433 106.573094 
L 292.700987 142.802596 
L 295.250096 222.778496 
L 296.524651 255.830941 
L 297.799206 271.8 
L 299.07376 255.676434 
L 300.348315 186.187851 
L 301.622869 33.946856 
L 301.622869 33.946856 
" clip-path="url(#p9943d3a439)" style="fill: none; stroke: #c3dd88; stroke-width: 1.5; stroke-linecap: square"/>
   </g>
   <g id="patch_3">
    <path d="M 35.304688 284.4 
L 35.304688 7.2 
" style="fill: none; stroke: #000000; stroke-width: 0.8; stroke-linejoin: miter; stroke-linecap: square"/>
   </g>
   <g id="patch_4">
    <path d="M 314.304688 284.4 
L 314.304688 7.2 
" style="fill: none; stroke: #000000; stroke-width: 0.8; stroke-linejoin: miter; stroke-linecap: square"/>
   </g>
   <g id="patch_5">
    <path d="M 35.304688 284.4 
L 314.304688 284.4 
" style="fill: none; stroke: #000000; stroke-width: 0.8; stroke-linejoin: miter; stroke-linecap: square"/>
   </g>
   <g id="patch_6">
    <path d="M 35.304688 7.2 
L 314.304688 7.2 
" style="fill: none; stroke: #000000; stroke-width: 0.8; stroke-linejoin: miter; stroke-linecap: square"/>
   </g>
   <g id="legend_1">
    <g id="patch_7">
     <path d="M 42.304688 59.5125 
L 133.195312 59.5125 
Q 135.195312 59.5125 135.195312 57.5125 
L 135.195312 14.2 
Q 135.195312 12.2 133.195312 12.2 
L 42.304688 12.2 
Q 40.304688 12.2 40.304688 14.2 
L 40.304688 57.5125 
Q 40.304688 59.5125 42.304688 59.5125 
z
" style="fill: #ffffff; opacity: 0.8; stroke: #cccccc; stroke-linejoin: miter"/>
    </g>
    <g id="line2d_18">
     <path d="M 44.304688 20.298438 
L 54.304688 20.298438 
L 64.304688 20.298438 
" style="fill: none; stroke: #00693e; stroke-width: 1.5; stroke-linecap: square"/>
    </g>
    <g id="text_15">
     <!-- underfitting -->
     <g style="fill: #12312b" transform="translate(72.304688 23.798438) scale(0.1 -0.1)">
      <defs>
       <path id="DejaVuSans-75" d="M 544 1381 
L 544 3500 
L 1119 3500 
L 1119 1403 
Q 1119 906 1312 657 
Q 1506 409 1894 409 
Q 2359 409 2629 706 
Q 2900 1003 2900 1516 
L 2900 3500 
L 3475 3500 
L 3475 0 
L 2900 0 
L 2900 538 
Q 2691 219 2414 64 
Q 2138 -91 1772 -91 
Q 1169 -91 856 284 
Q 544 659 544 1381 
z
M 1991 3584 
L 1991 3584 
z
" transform="scale(0.015625)"/>
       <path id="DejaVuSans-6e" d="M 3513 2113 
L 3513 0 
L 2938 0 
L 2938 2094 
Q 2938 2591 2744 2837 
Q 2550 3084 2163 3084 
Q 1697 3084 1428 2787 
Q 1159 2491 1159 1978 
L 1159 0 
L 581 0 
L 581 3500 
L 1159 3500 
L 1159 2956 
Q 1366 3272 1645 3428 
Q 1925 3584 2291 3584 
Q 2894 3584 3203 3211 
Q 3513 2838 3513 2113 
z
" transform="scale(0.015625)"/>
       <path id="DejaVuSans-64" d="M 2906 2969 
L 2906 4863 
L 3481 4863 
L 3481 0 
L 2906 0 
L 2906 525 
Q 2725 213 2448 61 
Q 2172 -91 1784 -91 
Q 1150 -91 751 415 
Q 353 922 353 1747 
Q 353 2572 751 3078 
Q 1150 3584 1784 3584 
Q 2172 3584 2448 3432 
Q 2725 3281 2906 2969 
z
M 947 1747 
Q 947 1113 1208 752 
Q 1469 391 1925 391 
Q 2381 391 2643 752 
Q 2906 1113 2906 1747 
Q 2906 2381 2643 2742 
Q 2381 3103 1925 3103 
Q 1469 3103 1208 2742 
Q 947 2381 947 1747 
z
" transform="scale(0.015625)"/>
       <path id="DejaVuSans-65" d="M 3597 1894 
L 3597 1613 
L 953 1613 
Q 991 1019 1311 708 
Q 1631 397 2203 397 
Q 2534 397 2845 478 
Q 3156 559 3463 722 
L 3463 178 
Q 3153 47 2828 -22 
Q 2503 -91 2169 -91 
Q 1331 -91 842 396 
Q 353 884 353 1716 
Q 353 2575 817 3079 
Q 1281 3584 2069 3584 
Q 2775 3584 3186 3129 
Q 3597 2675 3597 1894 
z
M 3022 2063 
Q 3016 2534 2758 2815 
Q 2500 3097 2075 3097 
Q 1594 3097 1305 2825 
Q 1016 2553 972 2059 
L 3022 2063 
z
" transform="scale(0.015625)"/>
       <path id="DejaVuSans-72" d="M 2631 2963 
Q 2534 3019 2420 3045 
Q 2306 3072 2169 3072 
Q 1681 3072 1420 2755 
Q 1159 2438 1159 1844 
L 1159 0 
L 581 0 
L 581 3500 
L 1159 3500 
L 1159 2956 
Q 1341 3275 1631 3429 
Q 1922 3584 2338 3584 
Q 2397 3584 2469 3576 
Q 2541 3569 2628 3553 
L 2631 2963 
z
" transform="scale(0.015625)"/>
       <path id="DejaVuSans-66" d="M 2375 4863 
L 2375 4384 
L 1825 4384 
Q 1516 4384 1395 4259 
Q 1275 4134 1275 3809 
L 1275 3500 
L 2222 3500 
L 2222 3053 
L 1275 3053 
L 1275 0 
L 697 0 
L 697 3053 
L 147 3053 
L 147 3500 
L 697 3500 
L 697 3744 
Q 697 4328 969 4595 
Q 1241 4863 1831 4863 
L 2375 4863 
z
" transform="scale(0.015625)"/>
       <path id="DejaVuSans-69" d="M 603 3500 
L 1178 3500 
L 1178 0 
L 603 0 
L 603 3500 
z
M 603 4863 
L 1178 4863 
L 1178 4134 
L 603 4134 
L 603 4863 
z
" transform="scale(0.015625)"/>
       <path id="DejaVuSans-74" d="M 1172 4494 
L 1172 3500 
L 2356 3500 
L 2356 3053 
L 1172 3053 
L 1172 1153 
Q 1172 725 1289 603 
Q 1406 481 1766 481 
L 2356 481 
L 2356 0 
L 1766 0 
Q 1100 0 847 248 
Q 594 497 594 1153 
L 594 3053 
L 172 3053 
L 172 3500 
L 594 3500 
L 594 4494 
L 1172 4494 
z
" transform="scale(0.015625)"/>
       <path id="DejaVuSans-67" d="M 2906 1791 
Q 2906 2416 2648 2759 
Q 2391 3103 1925 3103 
Q 1463 3103 1205 2759 
Q 947 2416 947 1791 
Q 947 1169 1205 825 
Q 1463 481 1925 481 
Q 2391 481 2648 825 
Q 2906 1169 2906 1791 
z
M 3481 434 
Q 3481 -459 3084 -895 
Q 2688 -1331 1869 -1331 
Q 1566 -1331 1297 -1286 
Q 1028 -1241 775 -1147 
L 775 -588 
Q 1028 -725 1275 -790 
Q 1522 -856 1778 -856 
Q 2344 -856 2625 -561 
Q 2906 -266 2906 331 
L 2906 616 
Q 2728 306 2450 153 
Q 2172 0 1784 0 
Q 1141 0 747 490 
Q 353 981 353 1791 
Q 353 2603 747 3093 
Q 1141 3584 1784 3584 
Q 2172 3584 2450 3431 
Q 2728 3278 2906 2969 
L 2906 3500 
L 3481 3500 
L 3481 434 
z
" transform="scale(0.015625)"/>
      </defs>
      <use xlink:href="#DejaVuSans-75"/>
      <use xlink:href="#DejaVuSans-6e" x="63.378906"/>
      <use xlink:href="#DejaVuSans-64" x="126.757812"/>
      <use xlink:href="#DejaVuSans-65" x="190.234375"/>
      <use xlink:href="#DejaVuSans-72" x="251.757812"/>
      <use xlink:href="#DejaVuSans-66" x="292.871094"/>
      <use xlink:href="#DejaVuSans-69" x="328.076172"/>
      <use xlink:href="#DejaVuSans-74" x="355.859375"/>
      <use xlink:href="#DejaVuSans-74" x="395.068359"/>
      <use xlink:href="#DejaVuSans-69" x="434.277344"/>
      <use xlink:href="#DejaVuSans-6e" x="462.060547"/>
      <use xlink:href="#DejaVuSans-67" x="525.439453"/>
     </g>
    </g>
    <g id="line2d_19">
     <path d="M 44.304688 34.976563 
L 54.304688 34.976563 
L 64.304688 34.976563 
" style="fill: none; stroke: #12312b; stroke-width: 1.5; stroke-linecap: square"/>
    </g>
    <g id="text_16">
     <!-- good_fit -->
     <g style="fill: #12312b" transform="translate(72.304688 38.476563) scale(0.1 -0.1)">
      <defs>
       <path id="DejaVuSans-6f" d="M 1959 3097 
Q 1497 3097 1228 2736 
Q 959 2375 959 1747 
Q 959 1119 1226 758 
Q 1494 397 1959 397 
Q 2419 397 2687 759 
Q 2956 1122 2956 1747 
Q 2956 2369 2687 2733 
Q 2419 3097 1959 3097 
z
M 1959 3584 
Q 2709 3584 3137 3096 
Q 3566 2609 3566 1747 
Q 3566 888 3137 398 
Q 2709 -91 1959 -91 
Q 1206 -91 779 398 
Q 353 888 353 1747 
Q 353 2609 779 3096 
Q 1206 3584 1959 3584 
z
" transform="scale(0.015625)"/>
       <path id="DejaVuSans-5f" d="M 3263 -1063 
L 3263 -1509 
L -63 -1509 
L -63 -1063 
L 3263 -1063 
z
" transform="scale(0.015625)"/>
      </defs>
      <use xlink:href="#DejaVuSans-67"/>
      <use xlink:href="#DejaVuSans-6f" x="63.476562"/>
      <use xlink:href="#DejaVuSans-6f" x="124.658203"/>
      <use xlink:href="#DejaVuSans-64" x="185.839844"/>
      <use xlink:href="#DejaVuSans-5f" x="249.316406"/>
      <use xlink:href="#DejaVuSans-66" x="299.316406"/>
      <use xlink:href="#DejaVuSans-69" x="334.521484"/>
      <use xlink:href="#DejaVuSans-74" x="362.304688"/>
     </g>
    </g>
    <g id="line2d_20">
     <path d="M 44.304688 49.932813 
L 54.304688 49.932813 
L 64.304688 49.932813 
" style="fill: none; stroke: #c3dd88; stroke-width: 1.5; stroke-linecap: square"/>
    </g>
    <g id="text_17">
     <!-- overfitting -->
     <g style="fill: #12312b" transform="translate(72.304688 53.432813) scale(0.1 -0.1)">
      <defs>
       <path id="DejaVuSans-76" d="M 191 3500 
L 800 3500 
L 1894 563 
L 2988 3500 
L 3597 3500 
L 2284 0 
L 1503 0 
L 191 3500 
z
" transform="scale(0.015625)"/>
      </defs>
      <use xlink:href="#DejaVuSans-6f"/>
      <use xlink:href="#DejaVuSans-76" x="61.181641"/>
      <use xlink:href="#DejaVuSans-65" x="120.361328"/>
      <use xlink:href="#DejaVuSans-72" x="181.884766"/>
      <use xlink:href="#DejaVuSans-66" x="222.998047"/>
      <use xlink:href="#DejaVuSans-69" x="258.203125"/>
      <use xlink:href="#DejaVuSans-74" x="285.986328"/>
      <use xlink:href="#DejaVuSans-74" x="325.195312"/>
      <use xlink:href="#DejaVuSans-69" x="364.404297"/>
      <use xlink:href="#DejaVuSans-6e" x="392.1875"/>
      <use xlink:href="#DejaVuSans-67" x="455.566406"/>
     </g>
    </g>
   </g>
  </g>
 </g>
 <defs>
  <clipPath id="p9943d3a439">
   <rect x="35.304688" y="7.2" width="279" height="277.2"/>
  </clipPath>
 </defs>
</svg>
